<svg width="318" height="587" viewBox="0 0 318 587" fill="none" xmlns="http://www.w3.org/2000/svg">
<path d="M278.875 0H216.375V11H278.875V0ZM101.625 0H39.1245V11H101.625V0ZM39.1245 0C17.7577 0 0.5 17.5757 0.5 39.0431H11.5C11.5 23.5202 23.9626 11 39.1245 11V0ZM0.5 39.0431V547.458H11.5V39.0431H0.5ZM0.5 547.458C0.5 568.925 17.7576 586.501 39.1245 586.501V575.501C23.9626 575.501 11.5 562.98 11.5 547.458H0.5ZM39.1245 586.501H278.875V575.501H39.1245V586.501ZM278.875 586.501C300.242 586.501 317.5 568.925 317.5 547.458H306.5C306.5 562.98 294.037 575.501 278.875 575.501V586.501ZM317.5 547.458V39.0431H306.5V547.458H317.5ZM317.5 39.0431C317.5 17.5756 300.242 0 278.875 0V11C294.037 11 306.5 23.5202 306.5 39.0431H317.5ZM216.375 0H101.625V11H216.375V0Z" fill="#154255"/>
<path d="M61.3547 57.2358H76V63.5094H61.3547V80H54.6453V63.5094H40V57.2358H54.6453V42H61.3547V57.2358Z" fill="#154255"/>
<path d="M275 57.2359L253.645 57.2358L239 57.2359V63.5094L253.645 63.5094L275 63.5094V57.2359Z" fill="#154255"/>
</svg>
