<svg width="318" height="593" viewBox="0 0 318 593" fill="none" xmlns="http://www.w3.org/2000/svg">
<path d="M278.875 44.7333H216.375V6H101.625V44.7333H39.1245C20.8601 44.7333 6 59.7812 6 78.2764V553.457C6 571.952 20.8601 587 39.1245 587H278.875C297.14 587 312 571.952 312 553.457V78.2764C312 59.7812 297.14 44.7333 278.875 44.7333ZM120.75 25.3667H197.25V44.7333H120.75V25.3667ZM292.875 553.457C292.875 561.281 286.602 567.633 278.875 567.633H39.1245C31.398 567.633 25.125 561.281 25.125 553.457V78.2764C25.125 70.4523 31.398 64.1 39.1245 64.1H278.875C286.602 64.1 292.875 70.4523 292.875 78.2764V553.457Z" fill="#154255"/>
<path d="M216.375 44.7333H210.875V50.2333H216.375V44.7333ZM216.375 6H221.875V0.5H216.375V6ZM101.625 6V0.5H96.125V6H101.625ZM101.625 44.7333V50.2333H107.125V44.7333H101.625ZM120.75 25.3667V19.8667H115.25V25.3667H120.75ZM197.25 25.3667H202.75V19.8667H197.25V25.3667ZM197.25 44.7333V50.2333H202.75V44.7333H197.25ZM120.75 44.7333H115.25V50.2333H120.75V44.7333ZM278.875 39.2333H216.375V50.2333H278.875V39.2333ZM221.875 44.7333V6H210.875V44.7333H221.875ZM216.375 0.5H101.625V11.5H216.375V0.5ZM96.125 6V44.7333H107.125V6H96.125ZM101.625 39.2333H39.1245V50.2333H101.625V39.2333ZM39.1245 39.2333C17.7577 39.2333 0.5 56.809 0.5 78.2764H11.5C11.5 62.7535 23.9626 50.2333 39.1245 50.2333V39.2333ZM0.5 78.2764V553.457H11.5V78.2764H0.5ZM0.5 553.457C0.5 574.924 17.7577 592.5 39.1245 592.5V581.5C23.9626 581.5 11.5 568.98 11.5 553.457H0.5ZM39.1245 592.5H278.875V581.5H39.1245V592.5ZM278.875 592.5C300.242 592.5 317.5 574.924 317.5 553.457H306.5C306.5 568.98 294.037 581.5 278.875 581.5V592.5ZM317.5 553.457V78.2764H306.5V553.457H317.5ZM317.5 78.2764C317.5 56.809 300.242 39.2333 278.875 39.2333V50.2333C294.037 50.2333 306.5 62.7535 306.5 78.2764H317.5ZM120.75 30.8667H197.25V19.8667H120.75V30.8667ZM191.75 25.3667V44.7333H202.75V25.3667H191.75ZM197.25 39.2333H120.75V50.2333H197.25V39.2333ZM126.25 44.7333V25.3667H115.25V44.7333H126.25ZM287.375 553.457C287.375 558.309 283.499 562.133 278.875 562.133V573.133C289.704 573.133 298.375 564.253 298.375 553.457H287.375ZM278.875 562.133H39.1245V573.133H278.875V562.133ZM39.1245 562.133C34.5005 562.133 30.625 558.309 30.625 553.457H19.625C19.625 564.253 28.2955 573.133 39.1245 573.133V562.133ZM30.625 553.457V78.2764H19.625V553.457H30.625ZM30.625 78.2764C30.625 73.4245 34.5005 69.6 39.1245 69.6V58.6C28.2955 58.6 19.625 67.48 19.625 78.2764H30.625ZM278.875 69.6C283.5 69.6 287.375 73.4245 287.375 78.2764H298.375C298.375 67.48 289.704 58.6 278.875 58.6V69.6ZM287.375 78.2764V553.457H298.375V78.2764H287.375ZM39.1245 69.6H278.875V58.6H39.1245V69.6Z" fill="#F2F2F2"/>
</svg>
