<svg width="266" height="438" viewBox="0 0 266 438" fill="none" xmlns="http://www.w3.org/2000/svg">
<path d="M0 17.0774C0 17.0774 25.2056 -8.34058 61.1371 2.8433C97.0686 14.0272 145.335 12.5303 190.919 5.90757C236.504 -0.715204 266 17.0774 266 17.0774V426C266 432.627 260.627 438 254 438H12C5.37258 438 0 432.627 0 426V17.0774Z" fill="#A2C83A"/>
<ellipse rx="3.5" ry="3.27456" transform="matrix(1 0 0 -1 48.5 377.136)" fill="#648213"/>
<ellipse rx="4.5" ry="4.21014" transform="matrix(1 0 0 -1 29.5 404.268)" fill="#648213"/>
<ellipse rx="7.5" ry="7.01691" transform="matrix(1 0 0 -1 29.5 387.428)" fill="#648213"/>
<ellipse rx="12.5" ry="11.6948" transform="matrix(1 0 0 -1 57.5 400.526)" fill="#648213"/>
<ellipse rx="4.45853" ry="4.25403" transform="matrix(0.932093 -0.36222 -0.405769 -0.913976 243.025 301.134)" fill="#648213"/>
<ellipse rx="7.43089" ry="7.09006" transform="matrix(0.932093 -0.36222 -0.405769 -0.913976 242.357 280.119)" fill="#648213"/>
<ellipse rx="12.3848" ry="11.8168" transform="matrix(0.932093 -0.36222 -0.405769 -0.913976 222.339 296.003)" fill="#648213"/>
<ellipse rx="4.33481" ry="4.38004" transform="matrix(0.909394 0.468422 0.495501 -0.842031 34.42 89.3128)" fill="#648213"/>
<ellipse rx="7.22468" ry="7.30007" transform="matrix(0.909394 0.468422 0.495501 -0.842031 51.5564 75.7113)" fill="#648213"/>
</svg>
