<svg width="1195" height="467" viewBox="0 0 1195 467" fill="none" xmlns="http://www.w3.org/2000/svg">
<path d="M0.00195312 45.1017C0.00195312 45.1017 25.2076 19.6838 61.1391 30.8677C97.0705 42.0516 145.337 40.5547 190.921 33.9319C206.261 31.7033 281.97 6.90334 368.506 33.9316C393.715 41.8054 418.498 57.352 547.006 33.9316C580.753 27.7813 640.343 -7.86597 728.006 25.8053C761.824 38.7948 808.23 57.3627 903.368 22.3341C950.325 5.04536 989.799 51.3077 1076 14.4999C1162.21 -22.3079 1194.5 25.8053 1194.5 25.8053V454.025C1194.5 460.652 1189.13 466.025 1182.5 466.025L12.002 466.025C5.37456 466.025 0.00195312 460.652 0.00195312 454.025V45.1017Z" fill="url(#paint0_linear)"/>
<defs>
<linearGradient id="paint0_linear" x1="642.502" y1="-1" x2="642.502" y2="466.025" gradientUnits="userSpaceOnUse">
<stop stop-color="#92B03E"/>
<stop offset="1" stop-color="#121704"/>
</linearGradient>
</defs>
</svg>
