<svg width="1195" height="468" viewBox="0 0 1195 468" fill="none" xmlns="http://www.w3.org/2000/svg">
<path d="M0 46.1017C0 46.1017 50 7.62773 90 27.4999C130 47.372 145.5 27.9999 217.5 14.4999C289.5 0.999877 313 11.0681 342 22.9999C371 34.9316 367 40.2178 396.005 34.9316C425.011 29.6454 489.342 -6.86599 577.005 26.8053C610.823 39.7948 657.23 58.3626 752.367 23.3341C799.324 6.04534 885.164 50.3105 971.367 13.5027C1057.57 -23.3051 1194.5 26.8053 1194.5 26.8053V455.025C1194.5 461.652 1189.13 467.025 1182.5 467.025H12C5.37261 467.025 0 461.652 0 455.025V46.1017Z" fill="#B9EE2A" fill-opacity="0.36"/>
</svg>
