<svg width="266" height="467" viewBox="0 0 266 467" fill="none" xmlns="http://www.w3.org/2000/svg">
<path d="M-531.999 46.1017C-531.999 46.1017 -516.361 18.3677 -500.999 26C-485.636 33.6323 -478.664 41.5547 -433.079 34.9319C-417.74 32.7033 -342.03 7.90333 -255.495 34.9316C-230.286 42.8054 -205.503 58.352 -76.9946 34.9316C-43.2477 28.7813 16.3422 -6.86599 104.005 26.8053C137.823 39.7948 184.23 58.3626 279.367 23.3341C326.324 6.04534 412.164 50.3105 498.367 13.5027C584.571 -23.3051 661.001 26.8053 661.001 26.8053V455.025C661.001 461.652 655.629 467.025 649.001 467.025H-519.999C-526.626 467.025 -531.999 461.652 -531.999 455.025V46.1017Z" fill="#A2C83A" fill-opacity="0.7"/>
<ellipse rx="3.5" ry="3.27456" transform="matrix(1 0 0 -1 121.499 297.274)" fill="#648213"/>
<ellipse rx="4.5" ry="4.21014" transform="matrix(1 0 0 -1 102.499 324.406)" fill="#648213"/>
<ellipse rx="7.5" ry="7.01691" transform="matrix(1 0 0 -1 102.499 307.566)" fill="#648213"/>
<ellipse rx="12.5" ry="11.6948" transform="matrix(1 0 0 -1 130.499 320.664)" fill="#648213"/>
<ellipse rx="4.45853" ry="4.25403" transform="matrix(0.932093 -0.36222 -0.405769 -0.913976 251.024 184.187)" fill="#648213"/>
<ellipse rx="7.43089" ry="7.09006" transform="matrix(0.932093 -0.36222 -0.405769 -0.913976 250.357 163.172)" fill="#648213"/>
<ellipse rx="12.3848" ry="11.8168" transform="matrix(0.932093 -0.36222 -0.405769 -0.913976 230.338 179.056)" fill="#648213"/>
<ellipse rx="4.33481" ry="4.38004" transform="matrix(0.909394 0.468422 0.495501 -0.842031 11.129 132.492)" fill="#648213"/>
<ellipse rx="7.22468" ry="7.30007" transform="matrix(0.909394 0.468422 0.495501 -0.842031 28.2654 118.89)" fill="#648213"/>
</svg>
