<svg width="244" height="244" viewBox="0 0 244 244" fill="none" xmlns="http://www.w3.org/2000/svg">
<g filter="url(#filter0_d)">
<circle cx="124" cy="120" r="110" fill="white"/>
</g>
<path d="M104.664 100.1C105.156 99.1511 105.073 98.0749 104.642 97.1816C104.763 96.165 104.495 95.1329 103.523 94.3412C102.618 93.6043 101.713 92.867 100.809 92.13C99.2182 90.8347 96.728 90.4258 95.1811 92.13C88.155 99.8697 80.8077 107.273 73.191 114.407C67.5283 109.171 61.7968 104.005 56.1063 98.8331C54.1091 97.0173 51.2183 97.5871 49.9618 99.7502C48.1315 100.649 46.648 101.822 45.4212 103.823C44.8371 104.776 44.8826 105.979 45.4212 106.936C49.0948 113.456 56.1956 119.189 62.0339 124.464C61.2527 125.157 60.4772 125.856 59.6803 126.533C51.8144 133.22 46.5088 137.462 56.3523 144.318C56.4851 144.411 56.6205 144.391 56.7553 144.445C56.9439 144.531 57.1248 144.591 57.3339 144.625C57.399 144.628 57.4597 144.639 57.5237 144.634C57.7263 144.65 57.9246 144.701 58.1299 144.661C63.4221 143.634 68.3436 139.529 72.8089 135.008C77.1588 139.252 81.7905 143.307 86.8837 145.713C88.0964 146.286 89.5421 145.952 90.4756 145.15C92.041 145.267 93.4682 144.305 94.1845 142.921C94.2906 142.856 94.359 142.819 94.4738 142.748C96.7496 141.34 96.9576 138.537 95.2736 136.605C91.471 132.243 87.4288 128.097 83.3082 124.024C90.7276 116.847 99.9919 109.108 104.664 100.1Z" fill="#EE2424"/>
<defs>
<filter id="filter0_d" x="0" y="0" width="244" height="244" filterUnits="userSpaceOnUse" color-interpolation-filters="sRGB">
<feFlood flood-opacity="0" result="BackgroundImageFix"/>
<feColorMatrix in="SourceAlpha" type="matrix" values="0 0 0 0 0 0 0 0 0 0 0 0 0 0 0 0 0 0 127 0"/>
<feOffset dx="-2" dy="2"/>
<feGaussianBlur stdDeviation="6"/>
<feColorMatrix type="matrix" values="0 0 0 0 0 0 0 0 0 0 0 0 0 0 0 0 0 0 0.25 0"/>
<feBlend mode="normal" in2="BackgroundImageFix" result="effect1_dropShadow"/>
<feBlend mode="normal" in="SourceGraphic" in2="effect1_dropShadow" result="shape"/>
</filter>
</defs>
</svg>
