<svg width="54" height="35" viewBox="0 0 54 35" fill="none" xmlns="http://www.w3.org/2000/svg">
<path d="M26.1241 20.0501C26.1241 22.998 25.5848 25.6105 24.5062 27.8877C23.4435 30.1493 21.9208 31.904 19.9381 33.1517C17.9554 34.3839 15.6713 35 13.0859 35C9.18389 35 6.02742 33.6352 3.61646 30.9057C1.20549 28.1762 0 24.4953 0 19.863V14.9499C0 12.0176 0.531365 9.41288 1.5941 7.13569C2.67269 4.85851 4.20334 3.10383 6.18604 1.87166C8.18461 0.623886 10.4687 0 13.0383 0C15.6237 0 17.9078 0.623886 19.8905 1.87166C21.8891 3.10383 23.4276 4.86631 24.5062 7.15909C25.5848 9.43627 26.1241 12.0332 26.1241 14.9499V20.0501ZM24.8393 14.9031C24.8393 10.7854 23.7766 7.48663 21.6511 5.00668C19.5257 2.51114 16.6547 1.26337 13.0383 1.26337C9.4694 1.26337 6.62224 2.50334 4.49678 4.98329C2.37132 7.44764 1.30859 10.8088 1.30859 15.0668V20.0501C1.30859 22.764 1.78443 25.166 2.73613 27.256C3.70369 29.3304 5.07573 30.9291 6.85223 32.0521C8.62873 33.1751 10.7066 33.7366 13.0859 33.7366C16.7023 33.7366 19.5653 32.4967 21.6749 30.0167C23.7845 27.5368 24.8393 24.1522 24.8393 19.863V14.9031Z" fill="url(#paint0_linear)"/>
<path d="M45.6488 25.4779C45.6488 24.277 45.2126 23.3411 44.3403 22.6705C43.4837 21.9998 41.9689 21.3057 39.7959 20.5882C37.6228 19.8708 35.8463 19.1767 34.4664 18.506C29.9775 16.338 27.7331 13.359 27.7331 9.56885C27.7331 7.6816 28.2883 6.0205 29.3986 4.58556C30.5248 3.13503 32.1109 2.01203 34.1571 1.21658C36.2032 0.405526 38.5032 0 41.0569 0C43.5472 0 45.7757 0.43672 47.7426 1.31016C49.7253 2.1836 51.2639 3.43137 52.3583 5.05348C53.4528 6.65998 54 8.50045 54 10.5749H45.6726C45.6726 9.18672 45.2364 8.11052 44.364 7.34626C43.5075 6.582 42.3417 6.19987 40.8666 6.19987C39.3756 6.19987 38.1939 6.52741 37.3215 7.18249C36.465 7.82197 36.0367 8.64082 36.0367 9.63904C36.0367 10.5125 36.5125 11.3079 37.4642 12.0254C38.4159 12.7273 40.0893 13.4603 42.4844 14.2246C44.8796 14.9733 46.8464 15.7843 48.385 16.6578C52.1283 18.779 54 21.7034 54 25.4311C54 28.4102 52.858 30.7498 50.5739 32.4499C48.2898 34.15 45.1571 35 41.1759 35C38.3683 35 35.8225 34.5087 33.5385 33.5261C31.2703 32.5279 29.5572 31.1709 28.3993 29.4552C27.2573 27.7239 26.6862 25.7353 26.6862 23.4893H35.0612C35.0612 25.3142 35.537 26.6633 36.4887 27.5368C37.4563 28.3946 39.0187 28.8235 41.1759 28.8235C42.5558 28.8235 43.6423 28.535 44.4354 27.9579C45.2444 27.3652 45.6488 26.5385 45.6488 25.4779Z" fill="url(#paint1_linear)"/>
<defs>
<linearGradient id="paint0_linear" x1="0" y1="35" x2="53.6202" y2="-0.572502" gradientUnits="userSpaceOnUse">
<stop stop-color="#385E6E"/>
<stop offset="1" stop-color="#23A4DD"/>
</linearGradient>
<linearGradient id="paint1_linear" x1="0" y1="35" x2="53.6202" y2="-0.572502" gradientUnits="userSpaceOnUse">
<stop stop-color="#385E6E"/>
<stop offset="1" stop-color="#23A4DD"/>
</linearGradient>
</defs>
</svg>
